<?xml version="1.0" encoding="UTF-8"?>
<svg id="Ebene_2" data-name="Ebene 2" xmlns="http://www.w3.org/2000/svg" viewBox="0 0 856.43 598.79">
  <defs>
    <style>
      .cls-1 {
        fill: #166534;
      }

      .cls-2 {
        fill: #706f70;
      }

      .cls-3 {
        fill: #14532d;
      }

      .cls-4 {
        fill: #16a34a;
      }
    </style>
  </defs>
  <g id="Ebene_1-2" data-name="Ebene 1">
    <g>
      <g id="zYH3Mq.tif">
        <g>
          <path class="cls-2" d="M577.18,195.69v1.14l-145.75.5c-2.11,1.47-.77,17.64-1.08,21.65-2.45,31.41-9.69,64.29-19.33,93.81,3.66-18.16,13.63-35.3,16.73-53.6,2.5-14.8,2.71-32.53,4.03-47.46.29-3.24,4.08-11.83,6.27-12.54l139.14-3.49Z"/>
          <g>
            <g>
              <path class="cls-1" d="M737.66,593.58h-179.82l2.38.07,174.54,2.11c4.66-.51,5.41-7.48,9.18-13.06,2.94-4.35,5.13-9.41,7.38-14.12-5.57,7.21-9.79,16.67-13.66,25.01Z"/>
              <path class="cls-1" d="M638.76,453.76l-1.81-3.42c-9.27-16.04-16.51-34.94-22.52-52.53-21.72-63.53-34.12-130.42-34.31-197.83h-2.54c1.04,12.78.89,25.78-.46,39,4.43,103.51-2.99,210.9-48.46,305.22-.52-.61.06,1.71-.32,2.15l.87,1.47,30.58,48.67c8.94-12.71,11.3-16.76,16.89-25.08,22.65-33.73,38.93-66.79,56.88-102.91,1.41-3.46,2.91-6.55,4.54-9.92.22-.42.44-.85.67-1.27v-3.54Z"/>
            </g>
            <g>
              <path class="cls-1" d="M198.96,581.27c-7,4.03-8.26,7.26-14.31,12.24"/>
              <g>
                <path class="cls-1" d="M330,465.18c1.27-.06,1.45-1.17,2.28-1.97l-2.28,1.97Z"/>
                <path class="cls-1" d="M329.07,204.59c-.98.43-2.6,12.56-1.61,12.88l1.61-5.86c-6.15,115.84-55.17,229.82-150.99,297.82-.03-3.02-.02-6.04-.05-9.06h-1.63l-.41,98.43,154-133.62c-.27.01-.53.04-.92-.06V204.59Z"/>
              </g>
              <path class="cls-3" d="M331.77,196.79c0,76.16-28.22,171.32-72.33,233.45-22.56,31.78-51.81,67.65-83.12,90.93l-.3-10.59c.2-25.31-.03-49.86-.58-74.48-.07-3.25.39-45.85-1.36-46.33,74.01-47.39,113.38-64.66,132.41-145.9l25.28-47.07Z"/>
              <path class="cls-3" d="M579.41,240.64c-.27-7.27,1.33-40.44-.51-43.88-.32-.6-1.08-.89-1.72-1.08-.98.43-.99.81,0,1.14-1.86,101.63-31.25,200.54-81.58,287.81l32.64,61.57,1.28,2.16c3.46-8.34,8.53-18.14,11.78-26.43,36.57-93.23,41.73-182.23,38.11-281.29Z"/>
              <path class="cls-4" d="M171.76,196.79c-16.6,43.74-59.88,77.83-109.44,77.83-22.95,0-44.32-6.69-62.33-18.19v156.12c.35.09.6.16.74.19,13.94,3.57,29,4.73,43.39,5.33l44.14.1c93.83-9.3,183.41-71.25,218.72-157l5.06-13.89,19.73-50.5h-160.01Z"/>
            </g>
            <g>
              <path class="cls-4" d="M328.15,466.12c.88-1.05,11.38-12.83,12.38-14,12.3-16.13,15.52-20.79,26.1-38.16,19.14-33.58,32.37-64.38,44.39-101.18,11.74-37.76,17.38-79.5,19.57-117.77,48.92-.41,100.51-.24,149.13.37,2.59,26.73-3.25,55.76-7.52,82.35-11.82,73.61-36.18,140.4-73.47,204.9-1.19,1.3-5.06,8.69-5.93,10.04-11.13,17.3-21.99,31.9-33.98,48.61-7.97,10.96-18.26,24.11-27.31,34.11-5.23,6.52-15.31,15.93-21.88,20.79l-1.08.86c-78.36.22-151.2,1.79-229.61,1.69l-2.94.07"/>
              <path class="cls-4" d="M753.22,572.13c-4.16,8.59-5.79,11.85-10.2,19.89l-4.29,6.52c-59.09-.62-116.69-1.33-175.72-1.69-.27,0-1.42.03-3.61-.05l4.57-6.81c27.12-37.77,45.04-76.7,66.57-118.83l2.5-5.87c1.65-3.2,1.7-3.2,3.38-6.58l1.55-3.46c14.26-32.46,26.09-65.99,35.49-100.58,11.12-44.65,18.69-89.75,21.67-135.81.2-3.09.8-15.01.96-19.89l147.44.16c.7,10.84.44,19.74.44,20.9,0,7.69-.36,9.55-.88,18.17-7.12,118.25-39.27,227.9-89.86,333.94Z"/>
            </g>
          </g>
        </g>
      </g>
      <circle class="cls-4" cx="249.93" cy="79.33" r="79.33"/>
      <circle class="cls-4" cx="508.52" cy="79.33" r="79.33"/>
      <circle class="cls-4" cx="777.1" cy="79.33" r="79.33"/>
    </g>
  </g>
</svg>