<?xml version="1.0" encoding="UTF-8"?>
<svg id="Ebene_2" data-name="Ebene 2" xmlns="http://www.w3.org/2000/svg" viewBox="0 0 1071.81 185">
  <defs>
    <style>
      .cls-1 {
        fill: #166534;
      }

      .cls-2 {
        fill: #706f70;
      }

      .cls-3 {
        fill: #14532d;
      }

      .cls-4 {
        fill: #16a34a;
      }
    </style>
  </defs>
  <g id="Ebene_1-2" data-name="Ebene 1">
    <g>
      <g>
        <g>
          <path class="cls-4" d="M1.5,12.5h53.92c32.54,0,46.94,17.95,46.94,42.4s-14.4,42.6-46.94,42.6H21.5v44H1.5V12.5ZM55.87,79.5c19.36,0,26.27-10.27,26.27-24.1s-6.91-23.9-26.27-23.9H21.5v48h34.37Z"/>
          <path class="cls-4" d="M23,143H0V11h55.42c30.78,0,48.44,16,48.44,43.9s-17.66,44.1-48.44,44.1H23v44ZM3,140h17v-44h35.42c28.88,0,45.44-14.98,45.44-41.1S84.3,14,55.42,14H3v126ZM55.87,81H20V30h35.87c22.95,0,27.77,13.81,27.77,25.4s-4.82,25.6-27.77,25.6ZM23,78h32.87c16.44,0,24.77-7.6,24.77-22.6s-8.33-22.4-24.77-22.4H23v45Z"/>
        </g>
        <g>
          <path class="cls-4" d="M112.08,92.41c0-30.4,21.67-52.7,52.41-52.7s52.01,22.3,52.01,52.7v7.09h-84.72c2.76,17.84,15.76,27.77,32.71,27.77,12.61,0,21.47-4.05,27.19-12.77h20.69c-7.49,18.65-25.22,30.61-47.88,30.61-30.74,0-52.41-22.3-52.41-52.7ZM196.4,83.5c-3.74-15.56-16.55-24.04-32.31-24.04s-28.37,8.67-32.12,24.04h64.43Z"/>
          <path class="cls-4" d="M164.49,146.61c-31.24,0-53.91-22.79-53.91-54.2s22.67-54.2,53.91-54.2c15.19,0,28.9,5.47,38.61,15.4,9.61,9.84,14.91,23.62,14.91,38.8v8.59h-84.43c3.09,15.55,14.53,24.77,30.92,24.77,12.29,0,20.53-3.84,25.93-12.09l.44-.68h23.72l-.83,2.06c-7.93,19.75-26.35,31.55-49.27,31.55ZM164.49,41.21c-29.5,0-50.91,21.53-50.91,51.2s21.41,51.2,50.91,51.2c20.84,0,37.72-10.27,45.6-27.61h-17.62c-5.95,8.59-15.11,12.77-27.99,12.77-18.32,0-31.42-11.13-34.19-29.04l-.27-1.73h84.97v-5.59c0-14.39-4.99-27.43-14.05-36.7-9.14-9.35-22.08-14.5-36.46-14.5ZM198.3,85h-68.24l.45-1.85c3.84-15.77,16.39-25.18,33.57-25.18s30.03,9.65,33.77,25.19l.45,1.85ZM133.93,82h60.51c-3.97-13.21-15.18-21.04-30.35-21.04s-26.15,7.82-30.15,21.04Z"/>
        </g>
        <g>
          <path class="cls-4" d="M227.52,93.19c0-29.55,21.67-51.23,52.41-51.23s52.41,21.67,52.41,51.23-21.67,51.23-52.41,51.23-52.41-21.67-52.41-51.23ZM313.43,93.19c0-19.7-13.4-33.89-33.49-33.89s-33.5,14.19-33.5,33.89,13.4,33.89,33.5,33.89,33.49-14.19,33.49-33.89Z"/>
          <path class="cls-4" d="M279.93,145.92c-31.24,0-53.91-22.17-53.91-52.73s22.67-52.73,53.91-52.73,53.91,22.17,53.91,52.73-22.67,52.73-53.91,52.73ZM279.93,43.47c-29.5,0-50.91,20.91-50.91,49.73s21.41,49.73,50.91,49.73,50.91-20.91,50.91-49.73-21.41-49.73-50.91-49.73ZM279.93,128.58c-20.61,0-35-14.55-35-35.39s14.39-35.39,35-35.39,34.99,14.55,34.99,35.39-14.39,35.39-34.99,35.39ZM279.93,60.81c-18.84,0-32,13.32-32,32.39s13.16,32.39,32,32.39,31.99-13.32,31.99-32.39-13.16-32.39-31.99-32.39Z"/>
        </g>
        <g>
          <path class="cls-4" d="M347.5,94.05c0-31.72,22-52.01,52.6-52.01s53.4,21.28,53.4,51.82c0,32.31-24.4,50.64-50.2,50.64-16,0-29.6-7.09-36.8-19.7v58.71h-19v-89.45ZM433.21,93.19c0-19.7-13.4-33.89-33.49-33.89s-33.3,14.19-33.3,33.89,13.4,33.89,33.3,33.89,33.49-14.19,33.49-33.89Z"/>
          <path class="cls-4" d="M368,185h-22v-90.95c0-32.01,21.74-53.51,54.1-53.51s54.9,21.92,54.9,53.32c0,34.23-26.01,52.14-51.7,52.14-14.87,0-27.45-5.84-35.3-16.21v55.22ZM349,182h16v-62.87l2.8,4.91c6.87,12.04,19.81,18.95,35.49,18.95,24.2,0,48.7-16.88,48.7-49.14,0-29.63-21.34-50.32-51.9-50.32s-51.1,20.3-51.1,50.51v87.95ZM399.72,128.58c-20.49,0-34.8-14.55-34.8-35.39s14.31-35.39,34.8-35.39,34.99,14.55,34.99,35.39-14.39,35.39-34.99,35.39ZM399.72,60.81c-18.72,0-31.8,13.32-31.8,32.39s13.08,32.39,31.8,32.39,31.99-13.32,31.99-32.39-13.16-32.39-31.99-32.39Z"/>
        </g>
        <g>
          <path class="cls-4" d="M470.5,1.5h19v140h-19V1.5Z"/>
          <path class="cls-4" d="M491,143h-22V0h22v143ZM472,140h16V3h-16v137Z"/>
        </g>
        <g>
          <path class="cls-4" d="M509.08,92.41c0-30.4,21.67-52.7,52.41-52.7s52.01,22.3,52.01,52.7v7.09h-84.72c2.76,17.84,15.76,27.77,32.71,27.77,12.61,0,21.47-4.05,27.19-12.77h20.69c-7.49,18.65-25.22,30.61-47.88,30.61-30.74,0-52.41-22.3-52.41-52.7ZM593.39,83.5c-3.74-15.56-16.55-24.04-32.31-24.04s-28.37,8.67-32.12,24.04h64.43Z"/>
          <path class="cls-4" d="M561.49,146.61c-31.24,0-53.91-22.79-53.91-54.2s22.67-54.2,53.91-54.2c15.19,0,28.9,5.47,38.61,15.4,9.61,9.84,14.91,23.62,14.91,38.8v8.59h-84.43c3.09,15.55,14.53,24.77,30.92,24.77,12.29,0,20.53-3.84,25.93-12.09l.44-.68h23.72l-.83,2.06c-7.93,19.75-26.35,31.55-49.27,31.55ZM561.49,41.21c-29.5,0-50.91,21.53-50.91,51.2s21.41,51.2,50.91,51.2c20.84,0,37.72-10.27,45.6-27.61h-17.62c-5.95,8.59-15.11,12.77-27.99,12.77-18.32,0-31.42-11.13-34.19-29.04l-.27-1.73h84.97v-5.59c0-14.39-4.99-27.43-14.05-36.7-9.14-9.35-22.08-14.5-36.46-14.5ZM595.29,85h-68.24l.45-1.85c3.84-15.77,16.39-25.18,33.57-25.18s30.04,9.65,33.77,25.19l.45,1.85ZM530.92,82h60.51c-3.97-13.21-15.18-21.04-30.35-21.04s-26.15,7.82-30.15,21.04Z"/>
        </g>
        <g>
          <path class="cls-4" d="M631.5,12.5h94v19h-74v35h62v19h-62v56h-20V12.5Z"/>
          <path class="cls-4" d="M653,143h-23V11h97v22h-74v32h62v22h-62v56ZM633,140h17v-56h62v-16h-62V30h74V14h-91v126Z"/>
        </g>
        <g>
          <path class="cls-4" d="M743.5,1.5h19v140h-19V1.5Z"/>
          <path class="cls-4" d="M764,143h-22V0h22v143ZM745,140h16V3h-16v137Z"/>
        </g>
        <g>
          <path class="cls-4" d="M781.73,93.19c0-29.55,21.67-51.23,52.41-51.23s52.41,21.67,52.41,51.23-21.67,51.23-52.41,51.23-52.41-21.67-52.41-51.23ZM867.63,93.19c0-19.7-13.4-33.89-33.49-33.89s-33.5,14.19-33.5,33.89,13.4,33.89,33.5,33.89,33.49-14.19,33.49-33.89Z"/>
          <path class="cls-4" d="M834.14,145.92c-31.24,0-53.91-22.17-53.91-52.73s22.67-52.73,53.91-52.73,53.91,22.17,53.91,52.73-22.67,52.73-53.91,52.73ZM834.14,43.47c-29.5,0-50.91,20.91-50.91,49.73s21.41,49.73,50.91,49.73,50.91-20.91,50.91-49.73-21.41-49.73-50.91-49.73ZM834.14,128.58c-20.61,0-35-14.55-35-35.39s14.39-35.39,35-35.39,34.99,14.55,34.99,35.39-14.39,35.39-34.99,35.39ZM834.14,60.81c-18.84,0-32,13.32-32,32.39s13.16,32.39,32,32.39,31.99-13.32,31.99-32.39-13.16-32.39-31.99-32.39Z"/>
        </g>
      </g>
      <g>
        <g id="zYH3Mq.tif">
          <g>
            <path class="cls-2" d="M1007.79,47.72v.26l-33.42.11c-.48.34-.18,4.04-.25,4.96-.56,7.2-2.22,14.74-4.43,21.51.84-4.16,3.13-8.09,3.84-12.29.57-3.39.62-7.46.92-10.88.07-.74.94-2.71,1.44-2.87l31.9-.8Z"/>
            <g>
              <g>
                <path class="cls-1" d="M1044.58,138.95h-41.23l.55.02,40.02.48c1.07-.12,1.24-1.72,2.1-2.99.67-1,1.18-2.16,1.69-3.24-1.28,1.65-2.24,3.82-3.13,5.73Z"/>
                <path class="cls-1" d="M1021.91,106.89l-.42-.78c-2.13-3.68-3.79-8.01-5.16-12.04-4.98-14.57-7.82-29.9-7.87-45.36h-.58c.24,2.93.2,5.91-.1,8.94,1.02,23.73-.69,48.35-11.11,69.98-.12-.14.01.39-.07.49l.2.34,7.01,11.16c2.05-2.91,2.59-3.84,3.87-5.75,5.19-7.73,8.92-15.31,13.04-23.59.32-.79.67-1.5,1.04-2.27.05-.1.1-.19.15-.29v-.81Z"/>
              </g>
              <g>
                <path class="cls-1" d="M921.07,136.13c-1.61.92-1.89,1.66-3.28,2.81"/>
                <g>
                  <path class="cls-1" d="M951.11,109.51c.29-.01.33-.27.52-.45l-.52.45Z"/>
                  <path class="cls-1" d="M950.9,49.76c-.22.1-.6,2.88-.37,2.95l.37-1.34c-1.41,26.56-12.65,52.69-34.62,68.28,0-.69,0-1.39-.01-2.08h-.37l-.09,22.57,35.31-30.64c-.06,0-.12,0-.21-.01v-59.73Z"/>
                </g>
                <path class="cls-3" d="M951.52,47.97c0,17.46-6.47,39.28-16.58,53.52-5.17,7.29-11.88,15.51-19.06,20.85l-.07-2.43c.05-5.8,0-11.43-.13-17.08-.02-.74.09-10.51-.31-10.62,16.97-10.87,26-14.82,30.36-33.45l5.8-10.79Z"/>
                <path class="cls-3" d="M1008.3,58.03c-.06-1.67.3-9.27-.12-10.06-.07-.14-.25-.2-.39-.25-.22.1-.23.19,0,.26-.43,23.3-7.17,45.98-18.7,65.99l7.48,14.12.29.5c.79-1.91,1.96-4.16,2.7-6.06,8.39-21.38,9.57-41.78,8.74-64.49Z"/>
                <path class="cls-4" d="M914.83,47.97c-3.81,10.03-13.73,17.85-25.09,17.85-5.26,0-10.16-1.53-14.29-4.17v35.79c.08.02.14.04.17.04,3.2.82,6.65,1.08,9.95,1.22l10.12.02c21.51-2.13,42.05-16.34,50.15-36l1.16-3.18,4.52-11.58h-36.69Z"/>
              </g>
              <g>
                <path class="cls-4" d="M950.69,109.73c.2-.24,2.61-2.94,2.84-3.21,2.82-3.7,3.56-4.77,5.98-8.75,4.39-7.7,7.42-14.76,10.18-23.2,2.69-8.66,3.98-18.23,4.49-27,11.22-.09,23.05-.05,34.19.09.59,6.13-.75,12.78-1.73,18.88-2.71,16.88-8.3,32.19-16.85,46.98-.27.3-1.16,1.99-1.36,2.3-2.55,3.97-5.04,7.31-7.79,11.15-1.83,2.51-4.19,5.53-6.26,7.82-1.2,1.5-3.51,3.65-5.02,4.77l-.25.2c-17.97.05-34.67.41-52.65.39h-.67"/>
                <path class="cls-4" d="M1048.15,134.03c-.95,1.97-1.33,2.72-2.34,4.56l-.98,1.49c-13.55-.14-26.76-.3-40.29-.39-.06,0-.33,0-.83-.01l1.05-1.56c6.22-8.66,10.33-17.59,15.26-27.25l.57-1.35c.38-.73.39-.73.78-1.51l.36-.79c3.27-7.44,5.98-15.13,8.14-23.06,2.55-10.24,4.29-20.58,4.97-31.14.05-.71.18-3.44.22-4.56l33.8.04c.16,2.49.1,4.53.1,4.79,0,1.76-.08,2.19-.2,4.17-1.63,27.11-9,52.25-20.6,76.57Z"/>
              </g>
            </g>
          </g>
        </g>
        <circle class="cls-4" cx="932.76" cy="21.04" r="18.19"/>
        <circle class="cls-4" cx="992.05" cy="21.04" r="18.19"/>
        <circle class="cls-4" cx="1053.63" cy="21.04" r="18.19"/>
      </g>
    </g>
  </g>
</svg>